<svg xmlns="http://www.w3.org/2000/svg" width="435.59375000000006" height="435.59375000000006" viewBox="0 0 320.3125 320.3125" class="css-1j8o68f"><defs id="SvgjsDefs6142"><linearGradient id="SvgjsLinearGradient6147"><stop id="SvgjsStop6148" stop-color="#7f00ff" offset="0"></stop><stop id="SvgjsStop6149" stop-color="#e100ff" offset="1"></stop></linearGradient><linearGradient id="SvgjsLinearGradient6150"><stop id="SvgjsStop6151" stop-color="#7f00ff" offset="0"></stop><stop id="SvgjsStop6152" stop-color="#e100ff" offset="1"></stop></linearGradient></defs><g id="SvgjsG6143" featurekey="rootContainer" transform="matrix(1.5975048727247045,0,0,1.5975048727247045,0,0)" fill="url(#SvgjsLinearGradient6147)"><path xmlns="http://www.w3.org/2000/svg" d="M100.254 0C44.974 0 0 44.974 0 100.254s44.974 100.254 100.254 100.254c55.28 0 100.254-44.974 100.254-100.254S155.534 0 100.254 0zm0 195.508C47.731 195.508 5 152.777 5 100.254S47.731 5 100.254 5s95.254 42.73 95.254 95.254-42.731 95.254-95.254 95.254z"></path></g><g id="SvgjsG6144" featurekey="8L6ael-0" transform="matrix(13.84722056508544,0,0,13.84722056508544,37.61365007209343,-11.236083016819293)" fill="url(#SvgjsLinearGradient6150)"><path d="M15.36 5 q0.28 0 0.49 0.21 t0.21 0.49 l0 13.4 q0 0.28 -0.21 0.49 t-0.49 0.21 l-1.52 0 q-0.3 0 -0.5 -0.21 t-0.2 -0.49 l0 -9.04 l-3.7 4.76 q-0.22 0.26 -0.56 0.26 l0 0 q-0.16 0 -0.32 -0.07 t-0.24 -0.21 l-6.56 -8.68 q-0.12 -0.14 -0.14 -0.35 t0.08 -0.38 t0.26 -0.28 t0.36 -0.11 l1.76 0 q0.34 0 0.56 0.28 l4.24 5.6 l4.14 -5.6 q0.22 -0.28 0.58 -0.28 l1.76 0 z M3.84 14.7 q0.28 0 0.49 0.2 t0.21 0.5 l0 3.7 q0 0.28 -0.21 0.49 t-0.49 0.21 l-1.52 0 q-0.28 0 -0.49 -0.21 t-0.21 -0.49 l0 -3.7 q0 -0.3 0.21 -0.5 t0.49 -0.2 l1.52 0 z"></path></g></svg>